<?xml version="1.0" standalone="no"?>
<!DOCTYPE svg PUBLIC "-//W3C//DTD SVG 20010904//EN"
 "http://www.w3.org/TR/2001/REC-SVG-20010904/DTD/svg10.dtd">
<svg version="1.0" xmlns="http://www.w3.org/2000/svg"
 width="280.000000pt" height="280.000000pt" viewBox="0 0 280.000000 280.000000"
 preserveAspectRatio="xMidYMid meet">
<metadata>
Created by potrace 1.14, written by Peter Selinger 2001-2017
</metadata>
<g transform="translate(0.000000,280.000000) scale(0.100000,-0.100000)"
fill="#000000" stroke="none">
<path d="M1185 2604 c-502 -90 -903 -494 -990 -998 -19 -113 -19 -299 0 -412
55 -317 235 -602 502 -793 414 -296 992 -296 1406 0 329 235 517 598 517 999
0 597 -427 1104 -1014 1205 -109 19 -313 18 -421 -1z m-408 -638 c114 -30 304
-155 531 -347 51 -44 98 -77 103 -74 5 4 71 56 146 116 429 344 625 398 753
207 74 -111 104 -246 104 -468 1 -227 -33 -370 -114 -483 -56 -78 -107 -101
-206 -95 -131 9 -290 102 -565 331 l-127 105 -143 -115 c-350 -279 -533 -364
-664 -304 -79 36 -140 131 -178 279 -19 76 -22 112 -21 287 0 220 13 293 71
411 68 140 168 188 310 150z"/>
<path d="M656 1718 c-73 -152 -72 -496 2 -648 13 -27 22 -34 41 -32 36 4 135
56 226 120 101 70 305 232 305 242 0 14 -232 200 -332 267 -85 56 -178 103
-207 103 -5 0 -21 -24 -35 -52z"/>
<path d="M2014 1722 c-85 -45 -171 -105 -328 -230 l-120 -95 26 -21 c143 -118
257 -207 326 -253 86 -57 175 -98 198 -89 21 8 54 83 71 160 21 95 21 317 0
412 -21 97 -51 154 -80 154 -12 0 -54 -17 -93 -38z"/>
</g>
</svg>
